<?xml version="1.0" encoding="UTF-8"?>
<svg fill="#FFFFFF" width="100pt" height="100pt" version="1.1" viewBox="0 0 100 100" xmlns="http://www.w3.org/2000/svg">
 <path d="m21.602 13c-1.1016 0-2.6016 0.89844-2.6016 2v67c0 0.10156 0.69922 1.1992 1.1016 1.6992l4.6992 6c0.39844 0.5 1 0.80078 1.6016 0.80078 0.60156 0 1.1992-0.30078 1.6016-0.80078l3.1992-4 3.1992 4c0.39844 0.5 1 0.80078 1.6016 0.80078 0.60156 0 1.1992-0.30078 1.6016-0.80078l3.1992-4 3.1992 4c0.80078 1 2.3984 1 3.1016 0l3.1992-4 3.1992 4c0.80078 1 2.3984 1 3.1016 0l3.1992-4 3.1992 4c0.39844 0.5 1 0.80078 1.6016 0.80078 0.60156 0 1.1992-0.30078 1.6016-0.80078l3.1992-4 3.1992 4c0.80078 1 2.3984 1 3.1016 0l4.6992-6c0.39844-0.5 1.1016-2.6016 1.1016-2.6992l-0.007812-66c0-1.1016-1.5-2-2.6016-2zm12.398 14h30c1.1016 0 2 1 2 2.1016 0 1.1016-0.89844 2-2 2h-30c-1.1016 0-2-0.89844-2-2 0-1.1016 0.89844-2.1016 2-2.1016zm30 41h-30c-1.1016 0-2-1.1016-2-2.1992 0-1.1016 0.89844-2 2-2h30c1.1016 0 2 0.89844 2 2 0 1.0977-0.89844 2.1992-2 2.1992zm0-13h-30c-1.1016 0-2-1.1016-2-2.1992 0-1.1016 0.89844-2 2-2h30c1.1016 0 2 0.89844 2 2 0 1.0977-0.89844 2.1992-2 2.1992zm2-14c0 2-2.1992 2.1016-2 2h-30c-1.1016 0-2-0.89844-2-2s0.89844-2 2-2h30c1.1016 0 2 0.89844 2 2z"/>
</svg>
