<?xml version="1.0" encoding="UTF-8"?>
<svg width="100pt" height="100pt" version="1.1" viewBox="0 0 100 100" xmlns="http://www.w3.org/2000/svg">
 <path d="m85 49.594c0-19.094-15.707-34.594-35-34.594-0.53516-0.007812-1.0508 0.19922-1.4336 0.57422-0.37891 0.375-0.59375 0.89062-0.59375 1.4258s0.21484 1.0469 0.59375 1.4219c0.38281 0.37891 0.89844 0.58594 1.4336 0.57812 17.156 0 31 13.688 31 30.594 0 11.961-6.8984 22.359-17 27.406v-10c0.007812-0.53516-0.19922-1.0508-0.57422-1.4336-0.37891-0.38281-0.89062-0.59766-1.4258-0.59766s-1.0469 0.21484-1.4258 0.59766c-0.375 0.38281-0.58203 0.89844-0.57422 1.4336v14c0 1.1016 0.89453 2 2 2h14c0.57422 0.011719 1.1289-0.22656 1.5195-0.64844 0.38672-0.42578 0.57422-1 0.51172-1.5703-0.11328-1.0312-0.99609-1.8047-2.0312-1.7812h-7.375c9.8555-6.1445 16.375-17.055 16.375-29.406zm-32.969 33.188c-0.11328-1.0312-0.99609-1.8047-2.0312-1.7812-17.156 0-31-13.688-31-30.594 0-11.973 6.9023-22.398 17.031-27.438v10.031c-0.007812 0.53516 0.19922 1.0508 0.57422 1.4336 0.375 0.38281 0.89062 0.59766 1.4258 0.59766s1.0508-0.21484 1.4258-0.59766c0.375-0.38281 0.58203-0.89844 0.57422-1.4336v-14c0-1.1055-0.89453-2-2-2h-14c-1.0352-0.023438-1.918 0.75-2.0312 1.7812-0.0625 0.57031 0.125 1.1445 0.51172 1.5703 0.39062 0.42188 0.94531 0.66016 1.5195 0.64844h7.375c-9.8672 6.1445-16.406 17.055-16.406 29.406 0 19.094 15.707 34.594 35 34.594 0.57422 0.011719 1.1289-0.22656 1.5195-0.64844 0.38672-0.42578 0.57422-1 0.51172-1.5703z"/>
</svg>
