<?xml version="1.0" encoding="UTF-8"?>
<svg width="104px" height="82px" viewBox="0 0 104 82" version="1.1" xmlns="http://www.w3.org/2000/svg" xmlns:xlink="http://www.w3.org/1999/xlink">
    <!-- Generator: Sketch 46.2 (44496) - http://www.bohemiancoding.com/sketch -->
    <title>tasks</title>
    <desc>Created with Sketch.</desc>
    <defs></defs>
    <g id="Page-2" stroke="none" stroke-width="1" fill="none" fill-rule="evenodd">
        <g id="Artboard-Copy" transform="translate(-75.000000, -86.000000)" stroke="#865FBF" stroke-width="3">
            <g id="tasks" transform="translate(75.000000, 86.000000)">
                <path d="M40.0627803,13.5 L96.9372197,13.5 C100.043137,13.5 102.5,10.8910457 102.5,7.5 C102.5,4.10895426 100.043137,1.5 96.9372197,1.5 L40.0627803,1.5 C36.9568628,1.5 34.5,4.10895426 34.5,7.5 C34.5,10.8910457 36.9568628,13.5 40.0627803,13.5 Z" id="Shape" fill-rule="nonzero"></path>
                <path d="M40.0627803,47.5 L96.9372197,47.5 C100.043137,47.5 102.5,44.8910457 102.5,41.5 C102.5,38.1089543 100.043137,35.5 96.9372197,35.5 L40.0627803,35.5 C36.9568628,35.5 34.5,38.1089543 34.5,41.5 C34.5,44.8910457 36.9568628,47.5 40.0627803,47.5 Z" id="Shape-Copy" fill-rule="nonzero"></path>
                <path d="M40.0627803,80.5 L96.9372197,80.5 C100.043137,80.5 102.5,77.8910457 102.5,74.5 C102.5,71.1089543 100.043137,68.5 96.9372197,68.5 L40.0627803,68.5 C36.9568628,68.5 34.5,71.1089543 34.5,74.5 C34.5,77.8910457 36.9568628,80.5 40.0627803,80.5 Z" id="Shape-Copy-2" fill-rule="nonzero"></path>
                <path d="M18.6421514,2.01867469 C18.6413302,2.01629097 18.6405854,2.01316204 18.6398803,2.00922143 C18.6132109,1.86016744 18.5154415,1.67501384 18.3931042,1.55069794 C18.3265829,1.48310069 18.1446709,1.48310069 18.0781495,1.55069794 L7.52321826,12.2763401 L1.87473372,6.53649939 C1.80821235,6.46890214 1.62630033,6.46890214 1.55977897,6.53649939 C1.48007368,6.6174938 1.48007368,6.84417012 1.55977897,6.92516452 L7.44751499,12.9081263 C7.46323846,12.924104 7.55719924,12.9588242 7.68676648,12.9588242 C7.81633372,12.9588242 7.9102945,12.924104 7.92601797,12.9081263 L18.6421514,2.01867469 Z M18.6421514,2.01867469 L18.7202007,1.93936307 C18.6650988,1.99535613 18.6500703,2.04166008 18.6421514,2.01867469 Z" id="Path"></path>
                <circle id="Oval" cx="10.5" cy="41.5" r="6"></circle>
                <circle id="Oval-Copy" cx="10.5" cy="74.5" r="6"></circle>
            </g>
        </g>
    </g>
</svg>