<?xml version="1.0" encoding="UTF-8"?>
<svg width="1893px" height="709px" viewBox="0 0 1893 709" version="1.1" xmlns="http://www.w3.org/2000/svg" xmlns:xlink="http://www.w3.org/1999/xlink">
    <!-- Generator: Sketch 49.1 (51147) - http://www.bohemiancoding.com/sketch -->
    <title>logo-text</title>
    <desc>Created with Sketch.</desc>
    <defs>
        <filter x="-3.1%" y="-3.0%" width="109.5%" height="109.3%" filterUnits="objectBoundingBox" id="filter-1">
            <feOffset dx="20" dy="20" in="SourceAlpha" result="shadowOffsetOuter1"></feOffset>
            <feColorMatrix values="0 0 0 0 0.896178784   0 0 0 0 0.896178784   0 0 0 0 0.896178784  0 0 0 0.5 0" type="matrix" in="shadowOffsetOuter1" result="shadowMatrixOuter1"></feColorMatrix>
            <feMerge>
                <feMergeNode in="shadowMatrixOuter1"></feMergeNode>
                <feMergeNode in="SourceGraphic"></feMergeNode>
            </feMerge>
        </filter>
        <path d="M31.3531854,400.847087 L543.020518,400.847087 C548.543366,400.847087 553.020518,405.32424 553.020518,410.847087 L553.020518,500.072616 C553.020518,505.595464 548.543366,510.072616 543.020518,510.072616 L31.3531854,510.072616 C27.4372906,510.072616 23.8817227,507.786984 22.255862,504.224568 L0,455.459852 L22.255862,406.695135 C23.8817227,403.132719 27.4372906,400.847087 31.3531854,400.847087 Z" id="path-2"></path>
        <path d="M-77.8723437,222.162605 L433.794989,222.162605 C439.317837,222.162605 443.794989,226.639758 443.794989,232.162605 L443.794989,321.388134 C443.794989,326.910982 439.317837,331.388134 433.794989,331.388134 L-77.8723437,331.388134 C-81.7882384,331.388134 -85.3438063,329.102502 -86.9696671,325.540086 L-109.225529,276.77537 L-86.9696671,228.010653 C-85.3438063,224.448237 -81.7882384,222.162605 -77.8723437,222.162605 Z" id="path-3"></path>
        <path d="M85.9659499,112.937076 L597.633283,112.937076 C603.15613,112.937076 607.633283,117.414229 607.633283,122.937076 L607.633283,212.162605 C607.633283,217.685453 603.15613,222.162605 597.633283,222.162605 L85.9659499,222.162605 C82.0500551,222.162605 78.4944873,219.876973 76.8686265,216.314557 L54.6127645,167.549841 L76.8686265,118.785124 C78.4944873,115.222708 82.0500551,112.937076 85.9659499,112.937076 Z" id="path-4"></path>
        <path d="M195.191479,292.151779 L706.858812,292.151779 C712.381659,292.151779 716.858812,296.628932 716.858812,302.151779 L716.858812,391.377308 C716.858812,396.900156 712.381659,401.377308 706.858812,401.377308 L195.191479,401.377308 C191.275584,401.377308 187.720016,399.091676 186.094156,395.52926 L163.838294,346.764544 L186.094156,297.999827 C187.720016,294.437411 191.275584,292.151779 195.191479,292.151779 Z" id="path-5"></path>
    </defs>
    <g id="Page-1" stroke="none" stroke-width="1" fill="none" fill-rule="evenodd">
        <g id="Artboard-2" transform="translate(-764.000000, -2436.000000)">
            <g id="logo-text" transform="translate(672.000000, 2345.000000)">
                <g id="Group" filter="url(#filter-1)" transform="translate(436.500000, 435.577777) rotate(-315.000000) translate(-436.500000, -435.577777) translate(132.500000, 123.577777)">
                    <g id="purple-copy">
                        <use fill="#7E32D5" fill-rule="evenodd" xlink:href="#path-2"></use>
                        <path stroke="#F4F0E8" stroke-width="8" d="M31.3531854,396.847087 L543.020518,396.847087 C550.752505,396.847087 557.020518,403.115101 557.020518,410.847087 L557.020518,500.072616 C557.020518,507.804603 550.752505,514.072616 543.020518,514.072616 L31.3531854,514.072616 C25.8709327,514.072616 20.8931377,510.872732 18.6169326,505.885349 L-4.39689767,455.459852 L18.6169326,405.034354 C20.8931377,400.046971 25.8709327,396.847087 31.3531854,396.847087 Z"></path>
                    </g>
                    <g id="purple-copy-3" transform="translate(167.284730, 276.775370) rotate(-270.000000) translate(-167.284730, -276.775370) ">
                        <use fill="#FF80FA" fill-rule="evenodd" xlink:href="#path-3"></use>
                        <path stroke="#F4F0E8" stroke-width="8" d="M-77.8723437,218.162605 L433.794989,218.162605 C441.526976,218.162605 447.794989,224.430619 447.794989,232.162605 L447.794989,321.388134 C447.794989,329.120121 441.526976,335.388134 433.794989,335.388134 L-77.8723437,335.388134 C-83.3545963,335.388134 -88.3323913,332.18825 -90.6085964,327.200867 L-113.622427,276.77537 L-90.6085964,226.349872 C-88.3323913,221.36249 -83.3545963,218.162605 -77.8723437,218.162605 Z"></path>
                    </g>
                    <g id="purple-copy-4" transform="translate(331.123024, 167.549841) rotate(-180.000000) translate(-331.123024, -167.549841) ">
                        <use fill="#54E4B3" fill-rule="evenodd" xlink:href="#path-4"></use>
                        <path stroke="#F4F0E8" stroke-width="8" d="M85.9659499,108.937076 L597.633283,108.937076 C605.365269,108.937076 611.633283,115.20509 611.633283,122.937076 L611.633283,212.162605 C611.633283,219.894592 605.365269,226.162605 597.633283,226.162605 L85.9659499,226.162605 C80.4836972,226.162605 75.5059022,222.962721 73.2296971,217.975338 L50.2158668,167.549841 L73.2296971,117.124343 C75.5059022,112.136961 80.4836972,108.937076 85.9659499,108.937076 Z"></path>
                    </g>
                    <g id="purple-copy-5" transform="translate(440.348553, 346.764544) rotate(-90.000000) translate(-440.348553, -346.764544) ">
                        <use fill="#F6D262" fill-rule="evenodd" xlink:href="#path-5"></use>
                        <path stroke="#F4F0E8" stroke-width="8" d="M195.191479,288.151779 L706.858812,288.151779 C714.590798,288.151779 720.858812,294.419793 720.858812,302.151779 L720.858812,391.377308 C720.858812,399.109295 714.590798,405.377308 706.858812,405.377308 L195.191479,405.377308 C189.709226,405.377308 184.731431,402.177424 182.455226,397.190041 L159.441396,346.764544 L182.455226,296.339046 C184.731431,291.351663 189.709226,288.151779 195.191479,288.151779 Z"></path>
                    </g>
                    <path d="M354.113439,400.847087 L543.020518,400.847087 C548.543366,400.847087 553.020518,405.32424 553.020518,410.847087 L553.020518,500.072616 C553.020518,505.595464 548.543366,510.072616 543.020518,510.072616 L354.113439,510.072616 C348.590591,510.072616 344.113439,505.595464 344.113439,500.072616 L344.113439,410.847087 C344.113439,405.32424 348.590591,400.847087 354.113439,400.847087 Z" id="purple-copy-2" fill="#7E32D5"></path>
                </g>
                <text id="made-by-Unicorn" font-family="Nunito-Light, Nunito" font-size="124" font-weight="300">
                    <tspan x="1003.236" y="701" fill="#CCB999">made by </tspan>
                    <tspan x="1505.312" y="701" fill="#65C3CF">Unicorn</tspan>
                </text>
                <text id="TRAX" font-family="Nunito-SemiBold, Nunito" font-size="402" font-weight="500" fill="#7C705F">
                    <tspan x="926.139" y="514">TRAX</tspan>
                </text>
            </g>
        </g>
    </g>
</svg>