<?xml version="1.0" encoding="UTF-8"?>
<svg width="1000px" height="254px" viewBox="0 0 1000 254" version="1.1" xmlns="http://www.w3.org/2000/svg" xmlns:xlink="http://www.w3.org/1999/xlink">
    <!-- Generator: Sketch 54.1 (76490) - https://sketchapp.com -->
    <title>Group</title>
    <desc>Created with Sketch.</desc>
    <g id="Brand" stroke="none" stroke-width="1" fill="none" fill-rule="evenodd">
        <g id="Github-Card-Copy" transform="translate(-139.000000, -193.000000)" fill-rule="nonzero">
            <g id="Group" transform="translate(140.000000, 194.000000)">
                <path d="M439.806263,32 C442.718697,32 445.12462,34.4225634 445.12462,37.3551402 L445.12462,62.6008011 C445.12462,65.6608812 442.718697,67.9559413 439.806263,67.9559413 L417.013303,67.9559413 C414.100869,67.9559413 411.694946,65.6608812 411.694946,62.6008011 C411.694946,59.6682243 414.100869,57.2456609 417.013303,57.2456609 L434.487906,57.2456609 L434.487906,42.7102804 L395.739874,42.7102804 L395.739874,217.64486 C395.739874,220.70494 393.333951,223 390.421517,223 L363.829731,223 C360.917297,223 358.511373,220.70494 358.511373,217.64486 L358.511373,42.7102804 L319.636714,42.7102804 L319.636714,57.2456609 L337.237944,57.2456609 C340.150378,57.2456609 342.556302,59.6682243 342.556302,62.6008011 C342.556302,65.6608812 340.150378,67.9559413 337.237944,67.9559413 L314.318357,67.9559413 C311.405924,67.9559413 309,65.6608812 309,62.6008011 L309,37.3551402 C309,34.4225634 311.405924,32 314.318357,32 L363.829731,32 C366.742164,32 369.148088,34.4225634 369.148088,37.3551402 L369.148088,212.28972 L385.10316,212.28972 L385.10316,37.3551402 C385.10316,34.4225634 387.509083,32 390.421517,32 L439.806263,32 Z M546.75745,32 C590.820693,32 615.342846,58.6481976 615.342846,92.5640854 C615.342846,113.602136 606.913356,131.197597 591.84245,141.780374 C590.820693,142.417891 589.798937,142.800401 588.649461,142.800401 C585.711911,142.800401 583.28524,140.377837 583.28524,137.317757 C583.28524,135.660214 584.179277,134.00267 585.711911,132.982644 C598.356146,124.05741 604.614404,109.267023 604.614404,92.5640854 C604.614404,61.835781 581.752605,42.7102804 546.75745,42.7102804 L491.454886,42.7102804 L491.454886,212.28972 L507.547549,212.28972 L507.547549,124.82243 C507.547549,121.76235 509.97422,119.46729 512.91177,119.46729 L514.061246,119.46729 C516.998795,119.46729 519.680906,120.742323 521.468979,123.164887 L586.989107,212.28972 L605.8916,212.28972 L541.904107,126.097463 C541.265509,125.332443 541.01007,124.43992 541.01007,123.547397 C541.01007,121.37984 542.798144,119.46729 545.224815,119.46729 L547.396047,119.46729 C570.896444,119.46729 577.793299,106.844459 577.793299,92.5640854 C577.793299,76.4986649 566.42626,67.9559413 548.673243,67.9559413 L518.275991,67.9559413 L518.275991,99.576769 C518.275991,102.509346 515.849319,104.931909 512.91177,104.931909 C509.97422,104.931909 507.547549,102.509346 507.547549,99.576769 L507.547549,62.6008011 C507.547549,59.540721 509.97422,57.2456609 512.91177,57.2456609 L548.673243,57.2456609 C572.939957,57.2456609 588.521741,71.1435247 588.521741,92.5640854 C588.521741,112.837116 577.154702,126.479973 557.613611,129.285047 L622.239702,216.369826 C622.8783,217.134846 623.133739,218.02737 623.133739,218.79239 C623.133739,220.959947 621.345665,223 618.918994,223 L586.09507,223 C583.15752,223 580.47541,221.597463 578.815056,219.302403 L518.275991,136.935247 L518.275991,217.64486 C518.275991,220.577437 515.849319,223 512.91177,223 L486.090665,223 C483.153115,223 480.726444,220.577437 480.726444,217.64486 L480.726444,37.3551402 C480.726444,34.2950601 483.153115,32 486.090665,32 L546.75745,32 Z M740.906807,32 C744.330779,32 747.247497,34.0400534 748.388821,37.2276368 L813.444303,217.134846 C814.458813,219.93992 812.429792,223 809.386261,223 L782.248107,223 C778.824134,223 775.907417,220.832443 774.766092,217.772363 L759.548436,175.441255 L668.622938,175.441255 L655.307489,212.28972 L671.412842,212.28972 L678.260787,193.419226 C679.02167,191.379172 681.050691,189.976636 683.206526,189.976636 C686.884126,189.976636 689.547216,193.674232 688.279078,197.116822 L680.797064,217.772363 C679.655739,220.832443 676.739022,223 673.315049,223 L646.303709,223 C643.260178,223 641.231157,219.93992 642.245667,217.134846 L659.238717,169.958611 C660.380041,166.771028 663.296759,164.730975 666.720731,164.730975 L761.450643,164.730975 C764.874616,164.730975 767.791333,166.771028 768.932657,169.958611 L784.150314,212.28972 L800.382481,212.28972 L739.0046,42.7102804 L716.68537,42.7102804 L681.68476,139.485314 L746.613428,139.485314 L727.844985,87.5914553 L715.544046,121.37984 C714.783163,123.547397 712.754142,124.949933 710.598307,124.949933 C706.920707,124.949933 704.257617,121.252336 705.525755,117.809746 L724.167384,66.4259012 C724.801454,64.6408545 726.323219,63.8758344 727.844985,63.8758344 C729.36675,63.8758344 730.888516,64.7683578 731.522585,66.4259012 L759.67525,144.330441 C760.68976,147.135514 758.660739,150.195594 755.617208,150.195594 L672.68098,150.195594 C669.637449,150.195594 667.608428,147.135514 668.622938,144.330441 L707.301149,37.2276368 C708.442473,34.0400534 711.35919,32 714.783163,32 L740.906807,32 Z M962.176984,223 C959.105844,223 956.162668,221.46996 954.499134,218.79239 L899.602505,133.62016 L848.928693,212.28972 L867.483498,212.28972 L895.251723,169.321095 C896.275436,167.663551 897.93897,166.898531 899.730469,166.898531 C902.673645,166.898531 905.104964,169.321095 905.104964,172.253672 C905.104964,173.273698 904.849036,174.293725 904.209215,175.186248 L876.057097,218.79239 C874.393563,221.46996 871.450387,223 868.379247,223 L836.516168,223 C833.317064,223 831.525566,219.55741 833.1891,216.87984 L895.891544,119.594793 C896.787293,118.192256 898.194899,117.55474 899.602505,117.55474 C901.01011,117.55474 902.417716,118.192256 903.313466,119.594793 L963.072733,212.28972 L981.627538,212.28972 L927.498694,128.137517 C926.602945,126.862483 926.091088,125.20494 926.091088,123.6749 C926.091088,122.14486 926.602945,120.61482 927.498694,119.212283 L976.7649,42.7102804 L958.338059,42.7102804 L919.053059,103.656876 C918.157309,104.931909 916.749703,105.569426 915.342098,105.569426 C913.934492,105.569426 912.526886,104.931909 911.631137,103.656876 L872.218172,42.7102804 L853.791331,42.7102804 L888.469622,96.3891856 C889.109443,97.2817089 889.365371,98.3017356 889.365371,99.3217623 C889.365371,102.254339 886.934052,104.676903 883.990876,104.676903 C882.199377,104.676903 880.535843,103.911883 879.51213,102.254339 L838.051738,38.1201602 C837.667846,37.4826435 837.411918,36.7176235 837.411918,35.9526035 C837.411918,33.9125501 839.075452,32 841.378807,32 L873.113921,32 C876.185061,32 879.128237,33.5300401 880.791771,36.0801068 L915.342098,89.5040053 L949.76446,36.2076101 C951.427994,33.5300401 954.37117,32 957.44231,32 L989.177424,32 C991.480779,32 993.144313,33.9125501 993.144313,35.9526035 C993.144313,36.7176235 993.016349,37.3551402 992.504493,38.1201602 L937.351935,123.6749 L997.367131,216.87984 C999.030665,219.55741 997.239167,223 994.040063,223 L962.176984,223 Z" id="TRAX" stroke="#7C30D4" fill="#D8B6FF"></path>
                <path d="M125.812357,0.000721385567 C193.775007,-0.227528516 249.628826,53.7368721 251.926812,121.866684 C254.224797,189.988146 202.134346,247.615679 134.310463,251.996964 L134.007951,251.996964 C131.610053,252.086037 129.606253,250.204367 129.517442,247.799392 C129.431407,245.397201 131.30754,243.384705 133.702663,243.298416 C167.364823,240.993648 198.393181,224.228415 218.850249,197.317194 C239.296216,170.39484 247.167095,135.937456 240.45631,102.774415 C233.745526,69.6113744 213.094184,40.9715788 183.800416,24.1812933 C154.506649,7.39379138 119.415186,4.10086901 87.520921,15.1348033 C82.1867077,16.7576044 79.4973984,8.92751938 84.7011704,6.91502329 C97.9284649,2.32775697 111.816292,-0.010412756 125.812357,0.000721385567 Z M18.7537036,148.297128 C19.408058,150.677652 17.8029826,153.088344 15.2237116,153.568288 L6.05394829,155.370136 L5.09148994,155.370136 C-1.01777315,155.968009 -1.9802315,147.397575 4.12903158,146.799702 L13.2987949,144.997854 C15.7871018,144.495969 18.2284596,145.974198 18.7537036,148.297128 Z M26.915254,170.650156 C27.9171106,172.917134 26.8929285,175.582326 24.6492162,176.560796 L16.6678517,180.161792 C11.3488024,182.562456 7.81579278,174.427505 13.134842,172.026841 L21.1608576,168.383179 C23.3627095,167.384798 25.9440949,168.405934 26.915254,170.650156 Z M31.3336219,189.82359 C35.678599,186.741518 40.4251261,193.080922 36.080149,196.16049 L29.5652574,200.777339 C25.2202803,203.856907 20.4763272,197.520007 24.8187302,194.440439 L31.3336219,189.82359 Z M39.1874428,213.202374 C44.0525152,207.873728 47.8635062,203.801308 50.6204157,200.985113 C54.7557801,196.760822 61.6618978,202.464024 57.5265335,206.688316 L46.0460959,218.905577 C44.3788973,220.820262 41.2966566,221.043597 39.3268705,219.395824 C37.3452181,217.756221 37.2858872,214.915514 39.1874428,213.202374 Z M71.4072116,221.110555 C73.4164007,222.365698 74.1004945,225.151361 72.9235299,227.313801 L68.7139287,235.149024 C65.832116,240.042052 58.9400051,235.749057 61.4339851,230.621233 L65.6435862,222.786011 C66.7990046,220.600381 69.3872494,219.852513 71.4072116,221.110555 Z M93.2984722,231.210396 C95.8152612,231.945518 97.179416,234.347646 96.3639887,236.58854 L93.3965687,244.702213 C92.6516483,247.030556 89.8865524,248.342299 87.2992565,247.585314 C84.7242227,246.836528 83.3600679,244.330553 84.2950504,242.054133 L87.2655359,233.943192 C88.0901598,231.699566 90.7847487,230.483472 93.2984722,231.210396 Z M113.320357,233.126238 C115.922906,233.374457 117.826399,235.681075 117.578249,238.281317 L116.585648,247.740871 C116.334472,250.165544 114.291774,252.012049 111.855666,251.999941 L111.335156,251.999941 C108.735633,251.727506 106.856351,249.396671 107.125684,246.796429 L108.121311,237.336875 C108.390644,234.733606 110.720834,232.853803 113.320357,233.126238 Z M22.8324283,130.2 C16.875666,130.2 10.424334,130.2 4.4675717,130.2 C-1.48919057,130.2 -1.48919057,121.8 4.4675717,121.8 L22.8324283,121.8 C28.7891906,121.8 28.7891906,130.2 22.8324283,130.2 Z M5.81906461,104.90799 C-0.271858429,103.471818 1.65020518,93.1984197 7.74112822,94.6378785 L16.8833638,96.7937804 C22.9742868,97.5135098 22.0147178,107.783621 15.9237948,107.063892 L14.9642257,107.063892 L5.81906461,104.90799 Z M13.0977382,79.9560022 C7.7923616,77.498385 11.4254521,69.3993545 16.7308288,71.8598195 L24.6552799,75.4195199 C29.9942703,77.8201819 26.4480154,85.9647765 21.109025,83.5612668 L13.0977382,79.9560022 Z M47.3956914,32.9077435 C51.1999866,36.9274819 55.914108,41.6204148 59.7216377,45.6375233 C63.5438674,49.670141 57.1716722,55.1149495 53.3494424,51.0823317 L41.0669923,38.3138265 C37.2773847,34.3096074 43.6060838,28.9035245 47.3956914,32.9077435 Z M30.5537749,50.0054383 L36.8674822,55.7565986 C41.0806024,59.6457539 35.4155448,66.0901698 31.2024246,62.2010145 L24.9272124,56.4042079 C20.7493784,52.5418507 26.3759409,46.1430811 30.5537749,50.0054383 Z M68.7419521,18.6973548 L72.9639474,25.6087264 C75.4668716,30.131929 68.5527462,33.9187367 65.6578954,29.6026452 L61.4359001,22.6912736 C58.9329759,18.168071 65.8498043,14.3812633 68.7419521,18.6973548 Z M110.639613,161.699888 C109.489665,161.699888 108.393007,161.242083 107.571214,160.440231 L72.5118114,125.758063 C68.9946521,121.696087 74.5845233,116.166362 78.6906806,119.645677 L110.639613,151.250844 L173.308997,89.3001669 C177.41796,85.8208517 183.005026,91.3478022 179.487867,95.4125523 L113.750084,160.440231 C112.928291,161.253181 111.800781,161.708211 110.639613,161.699888 Z" id="Combined-Shape" stroke="#30D4AD" fill="#B6FFE2"></path>
            </g>
        </g>
    </g>
</svg>