<?xml version="1.0" encoding="UTF-8" standalone="no"?>
<!-- Generator: Adobe Illustrator 19.2.0, SVG Export Plug-In . SVG Version: 6.00 Build 0)  -->
<svg id="Layer_1" style="enable-background:new 0 0 98.7 27" xmlns="http://www.w3.org/2000/svg" xml:space="preserve" viewBox="0 0 98.7 27" version="1.1" y="0px" x="0px" xmlns:xlink="http://www.w3.org/1999/xlink">
<style type="text/css">
	.st0{fill:#FFFFFF;}
</style>
	<path class="st0" d="m16.8 6.1c-0.1 0.2-0.3 0.4-0.4 0.5-0.2 0.1-0.3 0.1-0.6 0.1-0.2 0-0.5-0.1-0.7-0.2-0.3-0.2-0.6-0.3-0.9-0.6s-0.8-0.4-1.3-0.6c-0.5-0.2-1.1-0.2-1.7-0.2s-1.1 0.1-1.6 0.2c-0.4 0.2-0.8 0.4-1.1 0.7s-0.5 0.6-0.7 0.9-0.2 0.8-0.2 1.2c0 0.5 0.2 1 0.5 1.4s0.7 0.7 1.2 0.9c0.5 0.3 1.1 0.5 1.7 0.7s1.3 0.4 2 0.6 1.3 0.5 2 0.8c0.6 0.3 1.2 0.7 1.7 1.2s0.9 1 1.2 1.7c0.3 0.7 0.5 1.5 0.5 2.4 0 1-0.2 2-0.5 2.9s-0.9 1.7-1.6 2.4c-0.7 0.7-1.5 1.2-2.5 1.6s-2.1 0.6-3.4 0.6c-0.7 0-1.5-0.1-2.2-0.2-0.8-0.1-1.5-0.3-2.2-0.6s-1.3-0.6-1.8-1c-0.6-0.4-1.1-0.8-1.5-1.2l1.2-2.1 0.4-0.4c0.2-0.1 0.3-0.2 0.6-0.2s0.6 0.1 0.9 0.3 0.7 0.5 1.1 0.7 0.9 0.5 1.5 0.7c0.6 0.2 1.3 0.3 2.1 0.3 1.2 0 2.2-0.3 2.8-0.9 0.7-0.6 1-1.4 1-2.5 0-0.6-0.2-1.1-0.5-1.5s-0.7-0.7-1.2-1-1.1-0.5-1.7-0.7-1.3-0.4-2-0.6-1.3-0.5-2-0.8c-0.6-0.3-1.2-0.7-1.7-1.2s-0.9-0.7-1.2-1.4c-0.3-0.7-0.5-1.6-0.5-2.7 0-0.8 0.2-1.7 0.5-2.5s0.8-1.5 1.5-2.1 1.5-1.1 2.4-1.5 2-0.6 3.2-0.6c1.4 0 2.6 0.2 3.8 0.6s2.1 1 2.9 1.8l-1 2.1z"/>
	<path class="st0" d="m41.9 2.4v1.4h-11.9v9.2h9.9v1.3h-9.9v9.4h11.9v1.4h-13.5v-22.7h13.5z"/>
	<path class="st0" d="m55.1 14.8v10.2h-1.6v-22.6h5.8c2.6 0 4.6 0.5 5.9 1.5s1.9 2.5 1.9 4.4c0 0.9-0.1 1.7-0.4 2.4s-0.7 1.3-1.3 1.9c-0.6 0.5-1.2 1-2 1.3s-1.7 0.6-2.7 0.7c0.3 0.2 0.5 0.4 0.7 0.6l7.8 9.8h-1.4c-0.2 0-0.3 0-0.4-0.1s-0.2-0.2-0.4-0.3l-7.2-9.2c-0.2-0.2-0.4-0.4-0.6-0.5s-0.5-0.1-1-0.1h-3.1zm0-1.2h3.9c1 0 1.9-0.1 2.7-0.4 0.8-0.2 1.5-0.6 2-1s1-1 1.3-1.6 0.4-1.3 0.4-2.1c0-1.6-0.5-2.8-1.6-3.6s-2.6-1.2-4.6-1.2h-4.1v9.9z"/>
	<path class="st0" d="m96 25.1h-1.3c-0.1 0-0.3 0-0.4-0.1s-0.2-0.2-0.2-0.3l-2.7-6.6h-11l-2.7 6.6c0 0.1-0.1 0.2-0.2 0.3s-0.2 0.1-0.4 0.1h-1.2l9.3-22.6h1.6l9.2 22.6zm-15.1-8.3h10.1l-4.6-11.4c-0.1-0.2-0.1-0.4-0.2-0.6s-0.1-0.5-0.2-0.7c-0.1 0.3-0.1 0.5-0.2 0.7s-0.1 0.4-0.2 0.6l-4.7 11.4z"/>
</svg>
