<?xml version="1.0" encoding="UTF-8"?>
<svg width="691px" height="193px" viewBox="0 0 691 193" version="1.1" xmlns="http://www.w3.org/2000/svg" xmlns:xlink="http://www.w3.org/1999/xlink">
    <!-- Generator: Sketch 54.1 (76490) - https://sketchapp.com -->
    <title>TRAX</title>
    <desc>Created with Sketch.</desc>
    <g id="Brand" stroke="none" stroke-width="1" fill="none" fill-rule="evenodd">
        <g id="Github-Card-Copy" transform="translate(-448.000000, -225.000000)" fill="#D8B6FF" fill-rule="nonzero" stroke="#7C30D4">
            <g id="Group" transform="translate(140.000000, 194.000000)">
                <path d="M439.806263,32 C442.718697,32 445.12462,34.4225634 445.12462,37.3551402 L445.12462,62.6008011 C445.12462,65.6608812 442.718697,67.9559413 439.806263,67.9559413 L417.013303,67.9559413 C414.100869,67.9559413 411.694946,65.6608812 411.694946,62.6008011 C411.694946,59.6682243 414.100869,57.2456609 417.013303,57.2456609 L434.487906,57.2456609 L434.487906,42.7102804 L395.739874,42.7102804 L395.739874,217.64486 C395.739874,220.70494 393.333951,223 390.421517,223 L363.829731,223 C360.917297,223 358.511373,220.70494 358.511373,217.64486 L358.511373,42.7102804 L319.636714,42.7102804 L319.636714,57.2456609 L337.237944,57.2456609 C340.150378,57.2456609 342.556302,59.6682243 342.556302,62.6008011 C342.556302,65.6608812 340.150378,67.9559413 337.237944,67.9559413 L314.318357,67.9559413 C311.405924,67.9559413 309,65.6608812 309,62.6008011 L309,37.3551402 C309,34.4225634 311.405924,32 314.318357,32 L363.829731,32 C366.742164,32 369.148088,34.4225634 369.148088,37.3551402 L369.148088,212.28972 L385.10316,212.28972 L385.10316,37.3551402 C385.10316,34.4225634 387.509083,32 390.421517,32 L439.806263,32 Z M546.75745,32 C590.820693,32 615.342846,58.6481976 615.342846,92.5640854 C615.342846,113.602136 606.913356,131.197597 591.84245,141.780374 C590.820693,142.417891 589.798937,142.800401 588.649461,142.800401 C585.711911,142.800401 583.28524,140.377837 583.28524,137.317757 C583.28524,135.660214 584.179277,134.00267 585.711911,132.982644 C598.356146,124.05741 604.614404,109.267023 604.614404,92.5640854 C604.614404,61.835781 581.752605,42.7102804 546.75745,42.7102804 L491.454886,42.7102804 L491.454886,212.28972 L507.547549,212.28972 L507.547549,124.82243 C507.547549,121.76235 509.97422,119.46729 512.91177,119.46729 L514.061246,119.46729 C516.998795,119.46729 519.680906,120.742323 521.468979,123.164887 L586.989107,212.28972 L605.8916,212.28972 L541.904107,126.097463 C541.265509,125.332443 541.01007,124.43992 541.01007,123.547397 C541.01007,121.37984 542.798144,119.46729 545.224815,119.46729 L547.396047,119.46729 C570.896444,119.46729 577.793299,106.844459 577.793299,92.5640854 C577.793299,76.4986649 566.42626,67.9559413 548.673243,67.9559413 L518.275991,67.9559413 L518.275991,99.576769 C518.275991,102.509346 515.849319,104.931909 512.91177,104.931909 C509.97422,104.931909 507.547549,102.509346 507.547549,99.576769 L507.547549,62.6008011 C507.547549,59.540721 509.97422,57.2456609 512.91177,57.2456609 L548.673243,57.2456609 C572.939957,57.2456609 588.521741,71.1435247 588.521741,92.5640854 C588.521741,112.837116 577.154702,126.479973 557.613611,129.285047 L622.239702,216.369826 C622.8783,217.134846 623.133739,218.02737 623.133739,218.79239 C623.133739,220.959947 621.345665,223 618.918994,223 L586.09507,223 C583.15752,223 580.47541,221.597463 578.815056,219.302403 L518.275991,136.935247 L518.275991,217.64486 C518.275991,220.577437 515.849319,223 512.91177,223 L486.090665,223 C483.153115,223 480.726444,220.577437 480.726444,217.64486 L480.726444,37.3551402 C480.726444,34.2950601 483.153115,32 486.090665,32 L546.75745,32 Z M740.906807,32 C744.330779,32 747.247497,34.0400534 748.388821,37.2276368 L813.444303,217.134846 C814.458813,219.93992 812.429792,223 809.386261,223 L782.248107,223 C778.824134,223 775.907417,220.832443 774.766092,217.772363 L759.548436,175.441255 L668.622938,175.441255 L655.307489,212.28972 L671.412842,212.28972 L678.260787,193.419226 C679.02167,191.379172 681.050691,189.976636 683.206526,189.976636 C686.884126,189.976636 689.547216,193.674232 688.279078,197.116822 L680.797064,217.772363 C679.655739,220.832443 676.739022,223 673.315049,223 L646.303709,223 C643.260178,223 641.231157,219.93992 642.245667,217.134846 L659.238717,169.958611 C660.380041,166.771028 663.296759,164.730975 666.720731,164.730975 L761.450643,164.730975 C764.874616,164.730975 767.791333,166.771028 768.932657,169.958611 L784.150314,212.28972 L800.382481,212.28972 L739.0046,42.7102804 L716.68537,42.7102804 L681.68476,139.485314 L746.613428,139.485314 L727.844985,87.5914553 L715.544046,121.37984 C714.783163,123.547397 712.754142,124.949933 710.598307,124.949933 C706.920707,124.949933 704.257617,121.252336 705.525755,117.809746 L724.167384,66.4259012 C724.801454,64.6408545 726.323219,63.8758344 727.844985,63.8758344 C729.36675,63.8758344 730.888516,64.7683578 731.522585,66.4259012 L759.67525,144.330441 C760.68976,147.135514 758.660739,150.195594 755.617208,150.195594 L672.68098,150.195594 C669.637449,150.195594 667.608428,147.135514 668.622938,144.330441 L707.301149,37.2276368 C708.442473,34.0400534 711.35919,32 714.783163,32 L740.906807,32 Z M962.176984,223 C959.105844,223 956.162668,221.46996 954.499134,218.79239 L899.602505,133.62016 L848.928693,212.28972 L867.483498,212.28972 L895.251723,169.321095 C896.275436,167.663551 897.93897,166.898531 899.730469,166.898531 C902.673645,166.898531 905.104964,169.321095 905.104964,172.253672 C905.104964,173.273698 904.849036,174.293725 904.209215,175.186248 L876.057097,218.79239 C874.393563,221.46996 871.450387,223 868.379247,223 L836.516168,223 C833.317064,223 831.525566,219.55741 833.1891,216.87984 L895.891544,119.594793 C896.787293,118.192256 898.194899,117.55474 899.602505,117.55474 C901.01011,117.55474 902.417716,118.192256 903.313466,119.594793 L963.072733,212.28972 L981.627538,212.28972 L927.498694,128.137517 C926.602945,126.862483 926.091088,125.20494 926.091088,123.6749 C926.091088,122.14486 926.602945,120.61482 927.498694,119.212283 L976.7649,42.7102804 L958.338059,42.7102804 L919.053059,103.656876 C918.157309,104.931909 916.749703,105.569426 915.342098,105.569426 C913.934492,105.569426 912.526886,104.931909 911.631137,103.656876 L872.218172,42.7102804 L853.791331,42.7102804 L888.469622,96.3891856 C889.109443,97.2817089 889.365371,98.3017356 889.365371,99.3217623 C889.365371,102.254339 886.934052,104.676903 883.990876,104.676903 C882.199377,104.676903 880.535843,103.911883 879.51213,102.254339 L838.051738,38.1201602 C837.667846,37.4826435 837.411918,36.7176235 837.411918,35.9526035 C837.411918,33.9125501 839.075452,32 841.378807,32 L873.113921,32 C876.185061,32 879.128237,33.5300401 880.791771,36.0801068 L915.342098,89.5040053 L949.76446,36.2076101 C951.427994,33.5300401 954.37117,32 957.44231,32 L989.177424,32 C991.480779,32 993.144313,33.9125501 993.144313,35.9526035 C993.144313,36.7176235 993.016349,37.3551402 992.504493,38.1201602 L937.351935,123.6749 L997.367131,216.87984 C999.030665,219.55741 997.239167,223 994.040063,223 L962.176984,223 Z" id="TRAX"></path>
            </g>
        </g>
    </g>
</svg>