<?xml version="1.0" encoding="UTF-8"?>
<svg width="100pt" height="100pt" version="1.1" viewBox="0 0 100 100" xmlns="http://www.w3.org/2000/svg">
 <g>
  <path d="m28.801 83.102h36c6.6016 0 12-5.3984 12-12v-22c0-1.1016-0.89844-2-2-2-1.1016 0-2 0.89844-2 2v22c0 4.3984-3.6016 8-8 8h-36c-4.3984 0-8-3.6016-8-8v-36c0-4.3984 3.6016-8 8-8h22c1.1016 0 2-0.89844 2-2 0-1.1016-0.89844-2-2-2h-22c-6.6016 0-12 5.3984-12 12v36c0 6.5977 5.3984 12 12 12z"/>
  <path d="m83.199 37.199v-18.301-0.39844-0.10156c0-0.10156 0-0.19922-0.10156-0.30078l-0.097656-0.097656c0-0.10156-0.10156-0.19922-0.10156-0.19922-0.10156-0.19922-0.30078-0.39844-0.60156-0.60156-0.10156-0.10156-0.19922-0.10156-0.30078-0.10156l0.003906 0.003906-0.30078-0.10156h-0.10156-0.39844-18.301c-1.1016 0-2 0.89844-2 2s0.89844 2 2 2h13.5l-29.297 29.102c-0.80078 0.80078-0.80078 2 0 2.8008 0.80078 0.80078 2 0.80078 2.8008 0l29.301-29.199v13.5c0 1.1016 0.89844 2 2 2 1.0977-0.003906 1.9961-0.90234 1.9961-2.0039z"/>
 </g>
</svg>
