<?xml version="1.0" encoding="UTF-8"?>
<svg width="66px" height="50px" viewBox="0 0 66 50" version="1.1" xmlns="http://www.w3.org/2000/svg" xmlns:xlink="http://www.w3.org/1999/xlink">
    <!-- Generator: Sketch 46.2 (44496) - http://www.bohemiancoding.com/sketch -->
    <title>Group</title>
    <desc>Created with Sketch.</desc>
    <defs></defs>
    <g id="Page-1" stroke="none" stroke-width="1" fill="none" fill-rule="evenodd">
        <g id="Group" fill-rule="nonzero" fill="#865FBF">
            <path d="M59.775,6.766 L59.775,5.37 L59.853,4.739 L59.392,4.549 C57.41,1.779 47.103,1.14 45.882,1.074 C44.782,1.013 43.689,0.983 42.629,0.983 C39.479,0.983 34.657,1.233 32.602,2.659 C30.569,1.237 25.71,0.983 22.541,0.983 C21.482,0.983 20.387,1.013 19.289,1.074 C18.069,1.139 7.782,1.778 5.786,4.54 L5.397,4.7 L5.397,6.766 L0.5,6.766 L0.5,49.017 L65.5,49.017 L65.5,6.766 L59.775,6.766 Z M33.621,4.332 C34.103,3.874 36.844,2.983 42.63,2.983 C43.653,2.983 44.711,3.012 45.775,3.07 C53.326,3.48 57.365,5.007 57.752,5.678 L57.776,40.476 C55.069,39.163 49.952,38.451 45.883,38.23 C44.785,38.169 43.692,38.14 42.633,38.14 C40.561,38.14 36.162,38.265 33.617,39.255 L33.621,4.332 Z M7.397,5.739 L7.414,5.694 C7.809,5.006 11.847,3.48 19.397,3.07 C20.46,3.012 21.518,2.983 22.541,2.983 C28.328,2.983 31.068,3.874 31.55,4.332 L31.554,39.256 C29.009,38.266 24.612,38.141 22.539,38.141 C21.48,38.141 20.387,38.17 19.289,38.231 C15.221,38.452 10.103,39.165 7.397,40.477 L7.397,5.739 Z M63.5,47.018 L2.5,47.018 L2.5,8.766 L5.397,8.766 L5.397,43.047 L7.198,43.047 L7.488,42.768 C8.502,41.795 13.021,40.573 19.398,40.227 C20.461,40.168 21.518,40.141 22.54,40.141 C28.172,40.141 31.076,40.993 31.582,41.528 L31.618,41.567 L31.617,41.842 L31.878,41.842 L33.296,41.842 L33.555,41.842 L33.555,41.569 L33.592,41.528 C34.099,40.991 37.001,40.141 42.633,40.141 C43.655,40.141 44.713,40.168 45.775,40.227 C52.153,40.573 56.671,41.795 57.684,42.768 L57.975,43.047 L59.776,43.047 L59.776,8.766 L63.5,8.766 L63.5,47.018 Z" id="Shape"></path>
            <path d="M22.831,10.864 C25.652,10.864 27.643,11.106 28.927,11.389 L28.927,9.596 C26.978,9.207 24.603,9.115 22.831,9.115 C21.905,9.115 20.948,9.142 19.987,9.195 C19.137,9.24 13.261,9.608 10.024,10.976 L10.024,12.895 C11.165,12.23 14.535,11.241 20.082,10.939 C21.012,10.889 21.937,10.864 22.831,10.864 Z" id="Shape"></path>
            <path d="M22.831,16.519 C25.652,16.519 27.643,16.761 28.927,17.044 L28.927,15.251 C26.978,14.862 24.603,14.77 22.831,14.77 C21.905,14.77 20.948,14.797 19.987,14.85 C19.137,14.895 13.261,15.263 10.024,16.631 L10.024,18.55 C11.165,17.885 14.535,16.896 20.082,16.594 C21.012,16.544 21.937,16.519 22.831,16.519 Z" id="Shape"></path>
            <path d="M22.831,22.174 C25.652,22.174 27.643,22.416 28.927,22.699 L28.927,20.906 C26.978,20.517 24.603,20.425 22.831,20.425 C21.905,20.425 20.948,20.452 19.987,20.505 C19.137,20.55 13.261,20.918 10.024,22.286 L10.024,24.205 C11.165,23.54 14.535,22.551 20.082,22.249 C21.012,22.2 21.937,22.174 22.831,22.174 Z" id="Shape"></path>
            <path d="M22.831,27.83 C25.652,27.83 27.643,28.072 28.927,28.355 L28.927,26.562 C26.978,26.173 24.603,26.08 22.831,26.08 C21.905,26.08 20.948,26.107 19.987,26.16 C19.137,26.205 13.261,26.574 10.024,27.943 L10.024,29.861 C11.165,29.197 14.535,28.207 20.082,27.906 C21.012,27.855 21.937,27.83 22.831,27.83 Z" id="Shape"></path>
            <path d="M22.831,32.883 C25.652,32.883 27.643,33.125 28.927,33.408 L28.927,31.615 C26.978,31.226 24.603,31.135 22.831,31.135 C21.905,31.135 20.948,31.162 19.987,31.215 C19.137,31.26 13.261,31.627 10.024,32.996 L10.024,34.914 C11.165,34.25 14.535,33.26 20.082,32.959 C21.012,32.908 21.937,32.883 22.831,32.883 Z" id="Shape"></path>
            <path d="M45.09,10.939 C50.637,11.241 54.007,12.23 55.148,12.895 L55.148,10.976 C51.911,9.608 46.035,9.24 45.185,9.195 C44.224,9.142 43.267,9.115 42.341,9.115 C40.57,9.115 38.195,9.208 36.245,9.596 L36.245,11.389 C37.529,11.106 39.519,10.864 42.341,10.864 C43.235,10.864 44.16,10.889 45.09,10.939 Z" id="Shape"></path>
            <path d="M45.09,16.594 C50.637,16.896 54.007,17.885 55.148,18.55 L55.148,16.631 C51.911,15.263 46.035,14.895 45.185,14.85 C44.224,14.797 43.267,14.77 42.341,14.77 C40.57,14.77 38.195,14.863 36.245,15.251 L36.245,17.044 C37.529,16.761 39.519,16.519 42.341,16.519 C43.235,16.519 44.16,16.544 45.09,16.594 Z" id="Shape"></path>
            <path d="M45.09,22.25 C50.637,22.552 54.007,23.541 55.148,24.206 L55.148,22.287 C51.911,20.919 46.035,20.551 45.185,20.506 C44.224,20.453 43.267,20.426 42.341,20.426 C40.57,20.426 38.195,20.519 36.245,20.907 L36.245,22.7 C37.529,22.417 39.519,22.175 42.341,22.175 C43.235,22.174 44.16,22.2 45.09,22.25 Z" id="Shape"></path>
            <path d="M45.09,27.906 C50.637,28.207 54.007,29.197 55.148,29.861 L55.148,27.943 C51.911,26.574 46.035,26.205 45.185,26.16 C44.224,26.107 43.267,26.08 42.341,26.08 C40.57,26.08 38.195,26.174 36.245,26.562 L36.245,28.355 C37.529,28.072 39.519,27.83 42.341,27.83 C43.235,27.83 44.16,27.855 45.09,27.906 Z" id="Shape"></path>
            <path d="M55.147,34.914 L55.147,32.996 C51.91,31.627 46.034,31.26 45.184,31.215 C44.223,31.162 43.266,31.135 42.34,31.135 C40.569,31.135 38.194,31.227 36.244,31.615 L36.244,33.408 C37.528,33.125 39.518,32.883 42.34,32.883 C43.235,32.883 44.159,32.908 45.089,32.959 C50.637,33.26 54.007,34.25 55.147,34.914 Z" id="Shape"></path>
        </g>
    </g>
</svg>